<svg width="14" height="15" viewBox="0 0 14 15" fill="none" xmlns="http://www.w3.org/2000/svg">
<path d="M4.875 0.75H8.625C8.92337 0.75 9.20952 0.868526 9.4205 1.0795C9.63147 1.29048 9.75 1.57663 9.75 1.875C9.75 2.57119 9.47344 3.23887 8.98116 3.73116C8.48887 4.22344 7.82119 4.5 7.125 4.5H6.375C5.67881 4.5 5.01113 4.22344 4.51884 3.73116C4.02656 3.23887 3.75 2.57119 3.75 1.875C3.75 1.57663 3.86853 1.29048 4.0795 1.0795C4.29048 0.868526 4.57663 0.75 4.875 0.75Z" stroke="#28635B" stroke-width="1.5" stroke-linecap="round" stroke-linejoin="round"/>
<path d="M0.75 11.25V10.5C0.75 8.9087 1.38214 7.38258 2.50736 6.25736C3.63258 5.13214 5.1587 4.5 6.75 4.5C8.3413 4.5 9.86742 5.13214 10.9926 6.25736C12.1179 7.38258 12.75 8.9087 12.75 10.5V11.25C12.75 12.0456 12.4339 12.8087 11.8713 13.3713C11.3087 13.9339 10.5456 14.25 9.75 14.25H3.75C2.95435 14.25 2.19129 13.9339 1.62868 13.3713C1.06607 12.8087 0.75 12.0456 0.75 11.25Z" stroke="#28635B" stroke-width="1.5" stroke-linecap="round" stroke-linejoin="round"/>
</svg>
