<svg width="16" height="17" viewBox="0 0 16 17" fill="none" xmlns="http://www.w3.org/2000/svg">
<path fill-rule="evenodd" clip-rule="evenodd" d="M0.8848 4.72444C2.0733 1.87058 4.85801 0.00836451 7.94945 0.000107377C11.2813 -0.0174379 14.2439 2.11671 15.2825 5.28258C16.3211 8.44845 15.1984 11.9228 12.5037 13.8823C9.80894 15.8419 6.15771 15.839 3.46612 13.8751L1.06612 16.2751C0.822102 16.5188 0.426798 16.5188 0.182783 16.2751C-0.0609278 16.0311 -0.0609278 15.6358 0.182783 15.3918L2.50778 13.0668C0.336036 10.8666 -0.303703 7.5783 0.8848 4.72444ZM1.99909 10.1409C2.99699 12.5456 5.3459 14.1118 7.94945 14.1084V14.0751C11.483 14.0706 14.3516 11.2169 14.3744 7.68344C14.3778 5.07989 12.8116 2.73098 10.4069 1.73308C8.00217 0.735188 5.23306 1.28507 3.39207 3.12606C1.55108 4.96705 1.0012 7.73616 1.99909 10.1409Z" fill="#8A8A8A"/>
</svg>
