<svg width="14" height="14" viewBox="0 0 14 14" fill="none" xmlns="http://www.w3.org/2000/svg">
<path d="M12.75 6.75L11.25 7.125C10.5954 7.18226 9.93621 7.09546 9.31875 6.87072C8.70129 6.64597 8.14053 6.28873 7.6759 5.8241C7.21126 5.35946 6.85402 4.79871 6.62928 4.18125C6.40453 3.56378 6.31774 2.90459 6.375 2.25L6.75 0.75M12.75 6.75L6.75 0.75M12.75 6.75C12.75 7.93669 12.3981 9.09673 11.7388 10.0834C11.0795 11.0701 10.1425 11.8392 9.0461 12.2933C7.94975 12.7474 6.74335 12.8662 5.57946 12.6347C4.41557 12.4032 3.34648 11.8318 2.50736 10.9926C1.66825 10.1535 1.0968 9.08443 0.865291 7.92054C0.63378 6.75666 0.7526 5.55026 1.20673 4.4539C1.66085 3.35754 2.42989 2.42047 3.41658 1.76118C4.40328 1.10189 5.56331 0.75 6.75 0.75" stroke="#28635B" stroke-width="1.5" stroke-linecap="round" stroke-linejoin="round"/>
</svg>
