<svg width="21" height="21" viewBox="0 0 21 21" fill="none" xmlns="http://www.w3.org/2000/svg">
<path d="M1 15.7017V18.4517C1 19.0017 1.36667 19.3684 1.91667 19.3684H5.58333V16.6184H8.33333V13.8684H10.1667L11.45 12.5851C12.724 13.0289 14.1109 13.0272 15.3839 12.5802C16.6568 12.1333 17.7404 11.2677 18.4573 10.1248C19.1743 8.98202 19.4822 7.62972 19.3307 6.28915C19.1792 4.94859 18.5772 3.69912 17.6232 2.74516C16.6693 1.79121 15.4198 1.18923 14.0792 1.03771C12.7387 0.886188 11.3864 1.1941 10.2436 1.91106C9.10073 2.62803 8.23506 3.71161 7.78814 4.98454C7.34123 6.25746 7.33953 7.64438 7.78333 8.91839L1 15.7017Z" stroke="#0A9EF3" stroke-width="2" stroke-linecap="round" stroke-linejoin="round"/>
<path d="M14.2917 6.53508C14.5448 6.53508 14.75 6.32988 14.75 6.07675C14.75 5.82362 14.5448 5.61841 14.2917 5.61841C14.0385 5.61841 13.8333 5.82362 13.8333 6.07675C13.8333 6.32988 14.0385 6.53508 14.2917 6.53508Z" stroke="#0A9EF3" stroke-width="2" stroke-linecap="round" stroke-linejoin="round"/>
</svg>
