<svg width="24" height="24" viewBox="0 0 24 24" fill="none" xmlns="http://www.w3.org/2000/svg">
<path fill-rule="evenodd" clip-rule="evenodd" d="M11.9999 2.75479C11.4544 2.75479 10.9176 2.89213 10.4391 3.15414C9.96058 3.41614 9.55571 3.7944 9.26182 4.25403C9.09187 4.51984 8.77373 4.65086 8.46587 4.58184C7.93193 4.46213 7.3764 4.47918 6.85079 4.6314C6.32519 4.78362 5.84653 5.06609 5.45919 5.45261C5.07186 5.83914 4.78839 6.31721 4.63506 6.84249C4.48174 7.36777 4.46353 7.92327 4.58212 8.45746C4.65065 8.76615 4.51822 9.08466 4.25102 9.25376C3.78786 9.54687 3.40636 9.95236 3.142 10.4325C2.87764 10.9127 2.73901 11.4519 2.73901 12C2.73901 12.5481 2.87764 13.0873 3.142 13.5675C3.40636 14.0476 3.78786 14.4531 4.25102 14.7463C4.51822 14.9154 4.65065 15.2339 4.58212 15.5425C4.46353 16.0767 4.48174 16.6322 4.63506 17.1575C4.78839 17.6828 5.07186 18.1609 5.45919 18.5474C5.84653 18.9339 6.32519 19.2164 6.85079 19.3686C7.37639 19.5208 7.93192 19.5379 8.46587 19.4182C8.77435 19.349 9.09308 19.4807 9.26276 19.7475C9.55627 20.2088 9.96145 20.5887 10.4408 20.8519C10.9201 21.1151 11.4581 21.2531 12.0049 21.2531C12.5518 21.2531 13.0898 21.1151 13.5691 20.8519C14.0484 20.5887 14.4536 20.2088 14.7471 19.7475C14.9165 19.4812 15.2344 19.3494 15.5425 19.4178C16.0767 19.5364 16.6322 19.5182 17.1575 19.3649C17.6828 19.2116 18.1608 18.9281 18.5473 18.5408C18.9339 18.1534 19.2163 17.6748 19.3686 17.1492C19.5208 16.6236 19.5378 16.068 19.4181 15.5341C19.3491 15.2262 19.4801 14.9081 19.7459 14.7381C20.2056 14.4442 20.5838 14.0394 20.8458 13.5609C21.1078 13.0823 21.2452 12.5456 21.2452 12C21.2452 11.4545 21.1078 10.9177 20.8458 10.4392C20.5838 9.96063 20.2056 9.55577 19.7459 9.26188C19.48 9.09183 19.349 8.77347 19.4182 8.46549C19.5384 7.93073 19.5215 7.37425 19.3689 6.8478C19.2163 6.32136 18.933 5.84206 18.5455 5.45449C18.1579 5.06692 17.6786 4.78366 17.1522 4.63107C16.6257 4.47848 16.0692 4.46151 15.5345 4.58174C15.2265 4.65098 14.9081 4.51998 14.7381 4.25403C14.4442 3.7944 14.0393 3.41614 13.5608 3.15414C13.0823 2.89213 12.5455 2.75479 11.9999 2.75479ZM9.7187 1.83845C10.4181 1.45551 11.2026 1.25479 11.9999 1.25479C12.7973 1.25479 13.5818 1.45551 14.2812 1.83845C14.8317 2.13985 15.3154 2.5465 15.7059 3.03355C16.3298 2.96197 16.9634 3.01462 17.5697 3.19037C18.3392 3.41339 19.0397 3.82738 19.6061 4.39383C20.1726 4.96028 20.5866 5.6608 20.8096 6.43021C20.9853 7.03656 21.038 7.67018 20.9664 8.29404C21.4535 8.68453 21.8601 9.1683 22.1615 9.71876C22.5444 10.4181 22.7452 11.2027 22.7452 12C22.7452 12.7974 22.5444 13.5819 22.1615 14.2813C21.8601 14.8318 21.4533 15.3156 20.9662 15.7062C21.0373 16.3289 20.9846 16.9612 20.8094 17.5664C20.5869 18.3346 20.174 19.0342 19.6091 19.6003C19.0442 20.1664 18.3455 20.5807 17.5778 20.8048C16.9729 20.9813 16.3407 21.0353 15.7179 20.9655C15.3274 21.455 14.8428 21.8638 14.291 22.1667C13.5905 22.5514 12.8042 22.7531 12.0049 22.7531C11.2057 22.7531 10.4194 22.5514 9.71886 22.1667C9.16737 21.864 8.68304 21.4555 8.29263 20.9664C7.67031 21.0373 7.03836 20.9846 6.43352 20.8094C5.66533 20.5869 4.96575 20.1741 4.39964 19.6092C3.83354 19.0442 3.41923 18.3455 3.19515 17.5778C3.01872 16.9734 2.9647 16.3416 3.03429 15.7192C2.54287 15.3287 2.13232 14.8437 1.82799 14.2909C1.44162 13.5892 1.23901 12.8011 1.23901 12C1.23901 11.1989 1.44162 10.4108 1.82799 9.70906C2.13232 9.15632 2.54287 8.67127 3.03429 8.28085C2.9647 7.65842 3.01872 7.02663 3.19515 6.4222C3.41923 5.65448 3.83354 4.95576 4.39964 4.39084C4.96575 3.82592 5.66533 3.41308 6.43352 3.1906C7.03873 3.01533 7.67109 2.96268 8.29379 3.03378C8.68431 2.54663 9.16815 2.1399 9.7187 1.83845ZM12.3005 7.77792C11.7768 7.68809 11.2382 7.78651 10.7801 8.05574C10.322 8.32497 9.97392 8.74764 9.79759 9.24889C9.66013 9.63963 9.23195 9.84496 8.84121 9.70751C8.45046 9.57005 8.24513 9.14186 8.38259 8.75112C8.67647 7.91571 9.25653 7.21126 10.02 6.76254C10.7835 6.31382 11.6812 6.1498 12.5541 6.29951C13.4269 6.44923 14.2186 6.90303 14.7889 7.58053C15.3591 8.25787 15.6713 9.1151 15.6701 10.0005C15.6699 11.3984 14.6313 12.3439 13.8361 12.874C13.4156 13.1544 13.0005 13.3614 12.6934 13.4979C12.5388 13.5666 12.409 13.6186 12.316 13.654C12.2694 13.6717 12.232 13.6854 12.205 13.6949L12.1727 13.7063L12.1628 13.7096L12.1595 13.7108L12.1582 13.7112C12.158 13.7113 12.1573 13.7115 11.9201 13L12.1573 13.7115C11.7643 13.8425 11.3396 13.6301 11.2086 13.2372C11.0777 12.8446 11.2896 12.4203 11.6818 12.2889C11.6819 12.2888 11.6828 12.2885 11.6829 12.2885L11.6847 12.2879L11.7025 12.2816C11.7196 12.2756 11.7465 12.2658 11.782 12.2523C11.8531 12.2252 11.9576 12.1834 12.0842 12.1271C12.3397 12.0136 12.6745 11.8457 13.0041 11.626C13.7088 11.1562 14.1701 10.6019 14.1701 10L14.1701 9.99889C14.1709 9.46753 13.9836 8.95304 13.6414 8.54653C13.2992 8.14003 12.8242 7.86775 12.3005 7.77792ZM11.25 17C11.25 16.5858 11.5858 16.25 12 16.25H12.01C12.4242 16.25 12.76 16.5858 12.76 17C12.76 17.4142 12.4242 17.75 12.01 17.75H12C11.5858 17.75 11.25 17.4142 11.25 17Z" fill="#B5CDFE"/>
</svg>
